<?xml version="1.0" encoding="UTF-8"?>
<svg width="1430px" height="778px" viewBox="0 0 1430 778" version="1.1" xmlns="http://www.w3.org/2000/svg" xmlns:xlink="http://www.w3.org/1999/xlink">
    <!-- Generator: Sketch 53.2 (72643) - https://sketchapp.com -->
    <title>Group 24</title>
    <desc>Created with Sketch.</desc>
    <defs>
        <path d="M117.687,140.6529 C118.815,140.6529 119.732,141.5691 119.732,142.6939 L119.732,168.4249 C119.732,169.5538 118.815,170.47 117.687,170.47 L78.654,170.47 L78.654,198.9741 C78.654,200.103 77.738,201.0191 76.609,201.0191 L2.811,201.0191 C1.682,201.0191 0.766,200.103 0.766,198.9741 L0.766,91.8005 C0.766,90.6716 1.682,89.7554 2.811,89.7554 L35.275,89.7554 L74.556,69.8978 L74.556,42.0522 L54.036,42.0522 C42.702,42.0522 33.483,32.8372 33.483,21.5034 C33.483,10.1697 42.702,0.9505 54.036,0.9505 L99.175,0.9505 C110.508,0.9505 119.732,10.1738 119.732,21.5034 C119.732,32.8331 110.508,42.0522 99.175,42.0522 L78.646,42.0522 L78.646,69.8978 L118.611,90.0949 C118.685,90.1317 118.725,90.1931 118.791,90.238 C118.905,90.3157 119.012,90.3935 119.114,90.4957 C119.216,90.598 119.294,90.7043 119.372,90.8188 C119.417,90.8843 119.478,90.9293 119.515,91.0029 C119.539,91.052 119.535,91.101 119.556,91.1501 C119.609,91.281 119.637,91.4078 119.662,91.5469 C119.687,91.6737 119.711,91.7964 119.711,91.9232 C119.711,92.0499 119.687,92.1726 119.662,92.2994 C119.642,92.4385 119.613,92.5653 119.556,92.6962 C119.535,92.7453 119.539,92.7943 119.515,92.8434 C119.494,92.8925 119.437,92.913 119.408,92.9579 C119.273,93.1911 119.089,93.3874 118.86,93.551 C118.795,93.596 118.754,93.6533 118.685,93.6901 C118.656,93.7064 118.639,93.7351 118.611,93.7474 L78.646,113.9444 L78.646,140.6529 L117.687,140.6529 Z M37.573,21.5034 C37.573,30.5794 44.96,37.9621 54.036,37.9621 L99.171,37.9621 C108.246,37.9621 115.637,30.5794 115.637,21.5034 C115.637,12.4274 108.251,5.0407 99.171,5.0407 L54.036,5.0407 C44.96,5.0407 37.573,12.4274 37.573,21.5034 Z M76.601,73.4522 L40.06,91.9232 L76.601,110.3942 L113.155,91.9232 L76.601,73.4522 Z M74.564,196.9331 L74.564,170.4741 L35.528,170.4741 C34.399,170.4741 33.483,169.5579 33.483,168.429 L33.483,142.698 C33.483,141.5691 34.399,140.6529 35.528,140.6529 L74.556,140.6529 L74.556,113.9444 L34.808,93.8496 L4.856,93.8496 L4.856,196.9331 L74.564,196.9331 Z M115.641,166.3839 L115.641,144.7431 L37.573,144.7431 L37.573,166.3839 L115.641,166.3839 Z" id="path-1"></path>
        <path d="M116.6162,0.7817 C118.4763,0.7817 119.9379,2.2432 119.9379,4.1034 L119.9379,30.6771 C119.9379,32.5373 118.4763,33.9988 116.6162,33.9988 L3.6779,33.9988 C1.8178,33.9988 0.3562,32.5373 0.3562,30.6771 L0.3562,4.1034 C0.3562,2.2432 1.8178,0.7817 3.6779,0.7817 L116.6162,0.7817 Z M113.2945,27.3554 L113.2945,7.4251 L6.9996,7.4251 L6.9996,27.3554 L113.2945,27.3554 Z" id="path-3"></path>
        <path d="M3.8602,33.3634 C2,33.3634 0.5385,31.9018 0.5385,30.0417 L0.5385,3.468 C0.5385,1.6078 2,0.1462 3.8602,0.1462 L30.4339,0.1462 C32.2941,0.1462 33.7556,1.6078 33.7556,3.468 L33.7556,30.0417 C33.7556,31.9018 32.2941,33.3634 30.4339,33.3634 L3.8602,33.3634 Z M27.1122,26.72 L27.1122,6.7897 L7.1819,6.7897 L7.1819,26.72 L27.1122,26.72 Z" id="path-5"></path>
        <path d="M0.3562,3.468 C0.3562,1.6078 1.8178,0.1462 3.6779,0.1462 L30.2516,0.1462 C32.1118,0.1462 33.5733,1.6078 33.5733,3.468 L33.5733,30.0417 C33.5733,31.9018 32.1118,33.3634 30.2516,33.3634 L3.6779,33.3634 C1.8178,33.3634 0.3562,31.9018 0.3562,30.0417 L0.3562,3.468 Z M26.9299,26.72 L26.9299,6.7897 L6.9996,6.7897 L6.9996,26.72 L26.9299,26.72 Z" id="path-7"></path>
        <path d="M4.0425,33.3634 C2.1823,33.3634 0.7208,31.9018 0.7208,30.0417 L0.7208,3.468 C0.7208,1.6078 2.1823,0.1462 4.0425,0.1462 L30.6162,0.1462 C32.4763,0.1462 33.9379,1.6078 33.9379,3.468 L33.9379,30.0417 C33.9379,31.9018 32.4763,33.3634 30.6162,33.3634 L4.0425,33.3634 Z M27.2945,26.72 L27.2945,6.7897 L7.3642,6.7897 L7.3642,26.72 L27.2945,26.72 Z" id="path-9"></path>
        <path d="M13.9648,0.9639 C15.8249,0.9639 17.2865,2.4255 17.2865,4.2857 L17.2865,22.8873 L21.6711,18.6355 C22.867,17.3068 24.9929,17.3068 26.3215,18.6355 C27.6502,19.8313 27.6502,21.9572 26.3215,23.2859 L16.3564,33.251 C15.1606,34.5797 13.0347,34.5797 11.706,33.251 L1.7409,23.2859 C0.4122,22.09 0.4122,19.9642 1.7409,18.6355 C2.9367,17.3068 5.0626,17.3068 6.3913,18.6355 L10.6431,22.8873 L10.6431,4.2857 C10.6431,2.4255 12.1046,0.9639 13.9648,0.9639 Z" id="path-11"></path>
        <path d="M14.1471,0.9639 C16.0072,0.9639 17.4688,2.4255 17.4688,4.2857 L17.4688,22.8873 L21.8534,18.6355 C23.0492,17.3068 25.1752,17.3068 26.5038,18.6355 C27.8325,19.8313 27.8325,21.9572 26.5038,23.2859 L16.5387,33.251 C15.3429,34.5797 13.217,34.5797 11.8883,33.251 L1.9231,23.2859 C0.5945,22.09 0.5945,19.9642 1.9231,18.6355 C3.1189,17.3068 5.2449,17.3068 6.5735,18.6355 L10.8254,22.8873 L10.8254,4.2857 C10.8254,2.4255 12.2869,0.9639 14.1471,0.9639 Z" id="path-13"></path>
        <path d="M13.3293,0.9639 C15.1895,0.9639 16.6511,2.4255 16.6511,4.2857 L16.6511,22.8873 L21.0357,18.6355 C22.2315,17.3068 24.3574,17.3068 25.6861,18.6355 C27.0148,19.8313 27.0148,21.9572 25.6861,23.2859 L15.721,33.251 C14.5251,34.5797 12.3993,34.5797 11.0706,33.251 L1.1054,23.2859 C-0.2233,22.09 -0.2233,19.9642 1.1054,18.6355 C2.3013,17.3068 4.4271,17.3068 5.7558,18.6355 L10.0076,22.8873 L10.0076,4.2857 C10.0076,2.4255 11.4692,0.9639 13.3293,0.9639 Z" id="path-15"></path>
        <path d="M142.458,104.4206 L139.389,116.5778 C135.202,124.0059 127.34,128.6048 118.814,128.6137 L115.436,128.6137 L108.681,128.6137 L88.414,128.6137 L81.659,128.6137 L61.393,128.6137 L54.638,128.6137 L34.371,128.6137 L27.616,128.6137 L24.238,128.6137 C15.712,128.6048 7.85,124.0059 3.663,116.5778 L0.594,104.4206 L0.594,23.9052 C0.609,10.8531 11.186,0.2759 24.238,0.2613 L118.814,0.2613 C131.866,0.2759 142.443,10.8531 142.458,23.9052 L142.458,104.4206 Z M135.702,104.9699 L135.702,23.9052 C135.691,14.5824 128.136,7.0276 118.814,7.0167 L24.238,7.0167 C14.916,7.0276 7.361,14.5824 7.35,23.9052 L7.35,104.9699 C7.361,114.2926 14.916,121.8474 24.238,121.8583 L118.814,121.8583 C128.136,121.8474 135.691,114.2926 135.702,104.9699 Z" id="path-17"></path>
        <path d="M43.8926,0.7557 C44.1531,0.7157 44.4193,0.7664 44.6469,0.8994 L87.2118,25.0015 C87.5379,25.1896 87.7522,25.5246 87.7865,25.8995 C87.7882,25.9354 87.7882,25.9714 87.7865,26.0073 C87.7865,26.0196 87.7869,26.0307 87.7865,26.0432 C87.7911,26.103 87.7911,26.163 87.7865,26.2228 L87.7865,74.2834 C87.7901,74.688 87.5622,75.0868 87.2118,75.2891 L44.8983,99.2835 C44.8754,99.3085 44.8515,99.3324 44.8265,99.3553 L44.6828,99.4272 C44.3272,99.6325 43.889,99.6325 43.5334,99.4272 L1.0403,75.2891 C0.6676,75.0913 0.4333,74.7053 0.4297,74.2834 L0.4297,26.2228 C0.4178,26.1274 0.4178,26.0308 0.4297,25.9354 C0.429,25.9115 0.429,25.8875 0.4297,25.8636 C0.4414,25.8513 0.4534,25.8394 0.4656,25.8277 C0.4649,25.8037 0.4649,25.7798 0.4656,25.7558 C0.4654,25.7438 0.4654,25.7319 0.4656,25.7199 C0.4768,25.6955 0.4887,25.6716 0.5015,25.6481 C0.5014,25.6361 0.5014,25.6241 0.5015,25.6121 C0.5133,25.5999 0.5252,25.5879 0.5375,25.5762 C0.5486,25.5519 0.5606,25.5279 0.5734,25.5044 C0.5845,25.48 0.5965,25.4561 0.6093,25.4325 C0.6091,25.4206 0.6091,25.4086 0.6093,25.3966 C0.621,25.3844 0.633,25.3724 0.6452,25.3607 C0.6569,25.3485 0.6689,25.3365 0.6811,25.3248 C0.7247,25.2728 0.7728,25.2247 0.8248,25.1811 C0.8365,25.1689 0.8485,25.1569 0.8607,25.1452 C0.8724,25.1329 0.8844,25.121 0.8967,25.1093 C0.9312,25.0833 0.9672,25.0593 1.0044,25.0374 L1.1481,24.9656 L43.5334,0.8994 C43.6441,0.8315 43.7656,0.7829 43.8926,0.7557 Z M44.1081,3.1982 L3.9139,26.0432 L44.1081,48.8163 L84.3382,26.0432 L44.1081,3.1982 Z M2.7286,27.9828 L2.7286,73.6009 L42.9587,96.4817 L42.9587,50.8278 L2.7286,27.9828 Z M85.4876,27.9828 L45.2575,50.8278 L45.2575,96.4817 L85.4876,73.6009 L85.4876,27.9828 Z" id="path-19"></path>
        <path d="M44.8926,1.7557 C44.7656,1.7829 44.6441,1.8315 44.5334,1.8994 L2.1481,25.9656 L2.0044,26.0374 C1.9672,26.0593 1.9312,26.0833 1.8967,26.1093 C1.8844,26.121 1.8724,26.1329 1.8607,26.1452 C1.8485,26.1569 1.8365,26.1689 1.8248,26.1811 C1.7728,26.2247 1.7247,26.2728 1.6811,26.3248 C1.6689,26.3365 1.6569,26.3485 1.6452,26.3607 C1.633,26.3724 1.621,26.3844 1.6093,26.3966 C1.6091,26.4086 1.6091,26.4206 1.6093,26.4325 C1.5965,26.4561 1.5845,26.48 1.5734,26.5044 C1.5606,26.5279 1.5486,26.5519 1.5375,26.5762 C1.5252,26.5879 1.5133,26.5999 1.5015,26.6121 C1.5014,26.6241 1.5014,26.6361 1.5015,26.6481 C1.4887,26.6716 1.4768,26.6955 1.4656,26.7199 C1.4654,26.7319 1.4654,26.7438 1.4656,26.7558 C1.4649,26.7798 1.4649,26.8037 1.4656,26.8277 C1.4534,26.8394 1.4414,26.8513 1.4297,26.8636 C1.429,26.8875 1.429,26.9115 1.4297,26.9354 C1.4178,27.0308 1.4178,27.1274 1.4297,27.2228 L1.4297,75.2834 C1.4333,75.7053 1.6676,76.0913 2.0403,76.2891 L44.5334,100.4272 C44.889,100.6325 45.3272,100.6325 45.6828,100.4272 L45.8265,100.3553 C45.8515,100.3324 45.8754,100.3085 45.8983,100.2835 L88.2118,76.2891 C88.5622,76.0868 88.7901,75.688 88.7865,75.2834 L88.7865,27.2228 C88.7911,27.163 88.7911,27.103 88.7865,27.0432 C88.7869,27.0307 88.7865,27.0196 88.7865,27.0073 C88.7882,26.9714 88.7882,26.9354 88.7865,26.8995 C88.7522,26.5246 88.5379,26.1896 88.2118,26.0015 L45.6469,1.8994 C45.4193,1.7664 45.1531,1.7157 44.8926,1.7557 Z M45.1081,4.1982 L85.3382,27.0432 L45.1081,49.8163 L4.9139,27.0432 L45.1081,4.1982 Z M3.7286,28.9828 L43.9587,51.8278 L43.9587,97.4817 L3.7286,74.6009 L3.7286,28.9828 Z M86.4876,28.9828 L86.4876,74.6009 L46.2575,97.4817 L46.2575,51.8278 L86.4876,28.9828 Z M0.2803,101.7562 L0.2803,0.6063 L89.96658,0.6063 L89.96658,101.7562 L0.2803,101.7562 Z" id="path-21"></path>
    </defs>
    <g id="Page-1" stroke="none" stroke-width="1" fill="none" fill-rule="evenodd">
        <g id="Group-24" transform="translate(-36.000000, 2.000000)">
            <g id="Group-11" transform="translate(314.000000, 0.000000)" stroke-width="2">
                <path d="M383.5938,0 C286.0276,1.222006 188.8514,38.96104 114.4062,113.4062 C39.99071,187.8218 2.250671,284.9731 1,382.5 L279.5938,382.5 C280.7903,356.2567 291.2726,330.3524 311.3125,310.3125 C331.3766,290.2484 357.318,279.7377 383.5938,278.5625 L383.5938,0 Z" id="Stroke-4" stroke="#9D41FF"></path>
                <path d="M393.625,0 L393.625,278.5938 C419.82558,279.8182 445.67937,290.3044 465.6875,310.3125 C485.72736,330.3524 496.2097,356.2567 497.4062,382.5 L776,382.5 C774.7493,284.9731 737.0092,187.8217 662.5938,113.4062 C588.21,39.0225 491.10976,1.281362 393.625,0 Z" id="Stroke-6" stroke="#FF6163"></path>
                <path d="M496.9062,392.0156 C495.7097,418.25886 485.22735,444.16323 465.1875,464.2031 C445.17937,484.21123 419.32558,494.6974 393.125,495.9218 L393.125,774.4844 C490.60992,773.2029 587.71,735.4934 662.0938,661.1094 C736.5093,586.6938 774.2492,489.54231 775.5,392.0156 L496.9062,392.0156 Z" id="Stroke-8" stroke="#00B088"></path>
                <path d="M0.5,392.0156 C1.750716,489.54254 39.49071,586.6939 113.9062,661.1094 C188.3514,735.5545 285.5276,773.2623 383.0938,774.4844 L383.0938,495.9531 C356.818,494.7779 330.8766,484.26713 310.8125,464.2031 C290.7726,444.16324 280.2903,418.25886 279.0938,392.0156 L0.5,392.0156 Z" id="Stroke-10" stroke="#FFA306"></path>
            </g>
            <g id="Group-14" transform="translate(797.000000, 456.000000)">
                <mask id="mask-2" fill="white">
                    <use xlink:href="#path-1"></use>
                </mask>
                <g id="Clip-13"></g>
                <polygon id="Fill-12" fill="#00B088" mask="url(#mask-2)" points="-2.574 -2.3898 123.072 -2.3898 123.072 204.3594 -2.574 204.3594"></polygon>
            </g>
            <g id="Group-17" transform="translate(468.000000, 163.000000)">
                <mask id="mask-4" fill="white">
                    <use xlink:href="#path-3"></use>
                </mask>
                <g id="Clip-16"></g>
                <polygon id="Fill-15" fill="#9D41FF" mask="url(#mask-4)" points="-1.6368 -1.2114 121.9309 -1.2114 121.9309 35.9918 -1.6368 35.9918"></polygon>
            </g>
            <g id="Group-20" transform="translate(511.000000, 250.000000)">
                <mask id="mask-6" fill="white">
                    <use xlink:href="#path-5"></use>
                </mask>
                <g id="Clip-19"></g>
                <polygon id="Fill-18" fill="#9D41FF" mask="url(#mask-6)" points="-1.4546 -1.8468 35.7487 -1.8468 35.7487 35.3564 -1.4546 35.3564"></polygon>
            </g>
            <g id="Group-23" transform="translate(468.000000, 250.000000)">
                <mask id="mask-8" fill="white">
                    <use xlink:href="#path-7"></use>
                </mask>
                <g id="Clip-22"></g>
                <polygon id="Fill-21" fill="#9D41FF" mask="url(#mask-8)" points="-1.6368 -1.8468 35.5664 -1.8468 35.5664 35.3564 -1.6368 35.3564"></polygon>
            </g>
            <g id="Group-26" transform="translate(554.000000, 250.000000)">
                <mask id="mask-10" fill="white">
                    <use xlink:href="#path-9"></use>
                </mask>
                <g id="Clip-25"></g>
                <polygon id="Fill-24" fill="#9D41FF" mask="url(#mask-10)" points="-1.2723 -1.8468 35.9309 -1.8468 35.9309 35.3564 -1.2723 35.3564"></polygon>
            </g>
            <g id="Group-29" transform="translate(471.000000, 206.000000)">
                <mask id="mask-12" fill="white">
                    <use xlink:href="#path-11"></use>
                </mask>
                <g id="Clip-28"></g>
                <polygon id="Fill-27" fill="#9D41FF" mask="url(#mask-12)" points="-1.2487 -1.0291 29.3111 -1.0291 29.3111 36.2405 -1.2487 36.2405"></polygon>
            </g>
            <g id="Group-32" transform="translate(514.000000, 206.000000)">
                <mask id="mask-14" fill="white">
                    <use xlink:href="#path-13"></use>
                </mask>
                <g id="Clip-31"></g>
                <polygon id="Fill-30" fill="#9D41FF" mask="url(#mask-14)" points="-1.0664 -1.0291 29.4934 -1.0291 29.4934 36.2405 -1.0664 36.2405"></polygon>
            </g>
            <g id="Group-35" transform="translate(558.000000, 206.000000)">
                <mask id="mask-16" fill="white">
                    <use xlink:href="#path-15"></use>
                </mask>
                <g id="Clip-34"></g>
                <polygon id="Fill-33" fill="#9D41FF" mask="url(#mask-16)" points="-1.8841 -1.0291 28.6756 -1.0291 28.6756 36.2405 -1.8841 36.2405"></polygon>
            </g>
            <g id="Group-38" transform="translate(795.000000, 159.000000)">
                <mask id="mask-18" fill="white">
                    <use xlink:href="#path-17"></use>
                </mask>
                <g id="Clip-37"></g>
                <polygon id="Fill-36" fill="#FF6163" mask="url(#mask-18)" points="-2.277 -2.6097 145.329 -2.6097 145.329 131.4848 -2.277 131.4848"></polygon>
            </g>
            <g id="Group-49" transform="translate(819.000000, 176.000000)" stroke="#FF6163" stroke-width="4">
                <path d="M84.6810883,74.4591 C79.0847377,74.4591 74.548,78.9958377 74.548,84.5921883 C74.548,90.1885373 79.0847377,94.7252766 84.6810883,94.7252766 C90.2774373,94.7252766 94.8141766,90.1885373 94.8141766,84.5921883 C94.8080671,78.9983688 90.274905,74.4652059 84.6810883,74.4591 Z M84.6810883,87.9698825 C82.8156406,87.9698825 81.3033941,86.4576361 81.3033941,84.5921883 C81.3033941,82.7267406 82.8156406,81.2144941 84.6810883,81.2144941 C86.5465361,81.2144941 88.0587825,82.7267406 88.0587825,84.5921883 C88.0563651,86.4566369 86.5455369,87.9674651 84.6810883,87.9698825 Z" id="Stroke-39"></path>
                <path d="M47.5260883,20.4159766 C53.1224373,20.4159766 57.6591766,15.8792373 57.6591766,10.2828883 C57.6591766,4.68653767 53.1224373,0.1498 47.5260883,0.1498 C41.9297377,0.1498 37.393,4.68653767 37.393,10.2828883 C37.3991059,15.876705 41.9322688,20.4098671 47.5260883,20.4159766 Z M47.5260883,6.90519413 C49.3915361,6.90519413 50.9037825,8.41744059 50.9037825,10.2828883 C50.9037825,12.1483361 49.3915361,13.6605825 47.5260883,13.6605825 C45.6606406,13.6605825 44.1483941,12.1483361 44.1483941,10.2828883 C44.1508115,8.41843971 45.6616397,6.90761155 47.5260883,6.90519413 L47.5260883,6.90519413 Z" id="Stroke-41"></path>
                <path d="M10.3710883,20.4159766 C15.9674373,20.4159766 20.5041766,15.8792373 20.5041766,10.2828883 C20.5041766,4.68653767 15.9674373,0.1498 10.3710883,0.1498 C4.77473767,0.1498 0.238,4.68653767 0.238,10.2828883 C0.244105901,15.876705 4.77726878,20.4098671 10.3710883,20.4159766 Z M10.3710883,6.90519413 C12.2365361,6.90519413 13.7487825,8.41744059 13.7487825,10.2828883 C13.7487825,12.1483361 12.2365361,13.6605825 10.3710883,13.6605825 C8.50564059,13.6605825 6.99339413,12.1483361 6.99339413,10.2828883 C6.99581155,8.41843971 8.50663971,6.90761155 10.3710883,6.90519413 L10.3710883,6.90519413 Z" id="Stroke-43"></path>
                <path d="M10.3710883,57.5705766 C15.9674373,57.5705766 20.5041766,53.0338373 20.5041766,47.4374883 C20.5041766,41.8411377 15.9674373,37.3044 10.3710883,37.3044 C4.77473767,37.3044 0.238,41.8411377 0.238,47.4374883 C0.244105901,53.031305 4.77726878,57.5644671 10.3710883,57.5705766 Z M10.3710883,44.0597941 C12.2365361,44.0597941 13.7487825,45.5720406 13.7487825,47.4374883 C13.7487825,49.3029361 12.2365361,50.8151825 10.3710883,50.8151825 C8.50564059,50.8151825 6.99339413,49.3029361 6.99339413,47.4374883 C6.99581155,45.5730397 8.50663971,44.0622115 10.3710883,44.0597941 Z" id="Stroke-45"></path>
                <path d="M91.4357719,0.1498 L77.9249952,0.1498 C76.0595647,0.1498 74.5473297,1.66204589 74.5473297,3.52749592 L74.5473297,17.0382767 C74.5473297,18.9037302 76.0595647,20.4159766 77.9249952,20.4159766 L81.3027181,20.4159766 L81.3027181,37.3044534 L77.9249952,37.3044534 C76.0595647,37.3044534 74.5473297,38.8166998 74.5473297,40.6821533 L74.5473297,44.0598475 L57.65883,44.0598475 L57.65883,40.6821533 C57.65883,38.8166998 56.1465835,37.3044534 54.2811358,37.3044534 L40.7703533,37.3044534 C38.9048998,37.3044534 37.3926534,38.8166998 37.3926534,40.6821533 L37.3926534,54.1929358 C37.3926534,56.0583835 38.9048998,57.57063 40.7703533,57.57063 L44.1480475,57.57063 L44.1480475,74.4591297 L40.7703533,74.4591297 C38.9048998,74.4591297 37.3926534,75.9713647 37.3926534,77.8367952 L37.3926534,81.2145181 L20.5041766,81.2145181 L20.5041766,77.8367952 C20.5041766,75.9713647 18.9919302,74.4591297 17.1264767,74.4591297 L3.61569592,74.4591297 C1.75024589,74.4591297 0.238,75.9713647 0.238,77.8367952 L0.238,91.3475719 C0.238,93.2130599 1.75024589,94.7252948 3.61569592,94.7252948 L17.1264767,94.7252948 C18.9919302,94.7252948 20.5041766,93.2130599 20.5041766,91.3475719 L20.5041766,87.9699065 L37.3926534,87.9699065 L37.3926534,91.3475719 C37.3926534,93.2130599 38.9048998,94.7252948 40.7703533,94.7252948 L54.2811358,94.7252948 C56.1465835,94.7252948 57.65883,93.2130599 57.65883,91.3475719 L57.65883,77.8367952 C57.65883,75.9713647 56.1465835,74.4591297 54.2811358,74.4591297 L50.9034359,74.4591297 L50.9034359,57.57063 L54.2811358,57.57063 C56.1465835,57.57063 57.65883,56.0583835 57.65883,54.1929358 L57.65883,50.8152359 L74.5473297,50.8152359 L74.5473297,54.1929358 C74.5473297,56.0583835 76.0595647,57.57063 77.9249952,57.57063 L91.4357719,57.57063 C93.3012599,57.57063 94.8134948,56.0583835 94.8134948,54.1929358 L94.8134948,40.6821533 C94.8134948,38.8166998 93.3012599,37.3044534 91.4357719,37.3044534 L88.0581065,37.3044534 L88.0581065,20.4159766 L91.4357719,20.4159766 C93.3012599,20.4159766 94.8134948,18.9037302 94.8134948,17.0382767 L94.8134948,3.52749592 C94.8134948,1.66204589 93.3012599,0.1498 91.4357719,0.1498 Z M13.7487825,87.9699065 L6.99339413,87.9699065 L6.99339413,81.2145181 L13.7487825,81.2145181 L13.7487825,87.9699065 Z M50.9034359,87.9699065 L44.1480475,87.9699065 L44.1480475,81.2145181 L50.9034359,81.2145181 L50.9034359,87.9699065 Z M50.9034359,50.8152359 L44.1480475,50.8152359 L44.1480475,44.0598475 L50.9034359,44.0598475 L50.9034359,50.8152359 Z M88.0581065,50.8152359 L81.3027181,50.8152359 L81.3027181,44.0598475 L88.0581065,44.0598475 L88.0581065,50.8152359 Z M88.0581065,13.6605825 L81.3027181,13.6605825 L81.3027181,6.90519413 L88.0581065,6.90519413 L88.0581065,13.6605825 Z" id="Stroke-47"></path>
            </g>
            <g id="Group-52" transform="translate(413.000000, 432.000000)">
                <mask id="mask-20" fill="white">
                    <use xlink:href="#path-19"></use>
                </mask>
                <g id="Clip-51"></g>
                <polygon id="Fill-50" fill="#FFA306" mask="url(#mask-20)" points="-1.2651 -0.9435 89.4758 -0.9435 89.4758 101.267 -1.2651 101.267"></polygon>
            </g>
            <g id="Group-55" transform="translate(412.000000, 431.000000)">
                <mask id="mask-22" fill="white">
                    <use xlink:href="#path-21"></use>
                </mask>
                <g id="Clip-54"></g>
                <path d="M44.8926209,1.75571061 C44.7656103,1.78296766 44.6441629,1.83154841 44.5334037,1.89938946 L2.14813962,25.9656008 L2.00446084,26.0374374 C1.96722956,26.0593566 1.93125356,26.0833393 1.89670141,26.1092775 C1.8844653,26.1209839 1.87248915,26.1329601 1.86078172,26.1451992 C1.84854763,26.1569056 1.83657147,26.1688818 1.82486202,26.1811175 C1.77282206,26.2246761 1.72474124,26.272756 1.6811832,26.3247976 C1.66894885,26.336504 1.65697273,26.3484802 1.64526347,26.360716 C1.63302713,26.3724224 1.62105097,26.3843985 1.60934374,26.3966343 C1.6091581,26.4086071 1.6091581,26.4205832 1.60934374,26.432556 C1.59653735,26.4560767 1.58455678,26.4800358 1.57342405,26.5043961 C1.56062396,26.5279202 1.54864349,26.5518792 1.53750432,26.5762327 C1.52526794,26.5879425 1.51329178,26.5999187 1.50158459,26.6121544 C1.50139894,26.6241272 1.50139894,26.6361 1.50158459,26.6480728 C1.48877816,26.6715935 1.47679762,26.6955559 1.46566486,26.7199128 C1.46547921,26.7318856 1.46547921,26.7438617 1.46566486,26.7558345 C1.46491642,26.7797733 1.46491642,26.8037324 1.46566486,26.8276712 C1.45343049,26.839381 1.44145436,26.8513571 1.42974513,26.8635929 C1.42899669,26.8875317 1.42899669,26.9114908 1.42974513,26.9354329 C1.41781829,27.0308477 1.41781829,27.127375 1.42974513,27.2227898 L1.42974513,75.2833819 C1.43329306,75.7052782 1.66768626,76.0913337 2.04038053,76.2891156 L44.5334037,100.427162 C44.8890469,100.632462 45.3271948,100.632462 45.682838,100.427162 L45.8265384,100.355345 C45.8515224,100.332452 45.875495,100.308479 45.8983549,100.283495 L88.2118065,76.2891156 C88.5622574,76.0868157 88.7901145,75.6879816 88.7865068,75.2833819 L88.7865068,27.2227898 C88.7911597,27.1630135 88.7911597,27.1029676 88.7865068,27.0431913 C88.7869114,27.0307533 88.7865068,27.0196335 88.7865068,27.0072696 C88.7881927,26.9713715 88.7881927,26.9354127 88.7865068,26.8995112 C88.7522844,26.5245687 88.537914,26.1896647 88.2118065,26.0015191 L45.6469298,1.89938946 C45.4193761,1.7664518 45.153082,1.71572736 44.8926209,1.75571061 Z M45.1081377,4.19825128 L85.3382376,27.0431913 L45.1081377,49.8162934 L4.91395958,27.0431913 L45.1081377,4.19825128 Z M3.72860759,28.9828557 L43.9587034,51.8277944 L43.9587034,97.4817433 L3.72860759,74.6008897 L3.72860759,28.9828557 Z M86.4876719,28.9828557 L86.4876719,74.6008897 L46.2575721,97.4817433 L46.2575721,51.8277944 L86.4876719,28.9828557 Z" id="Stroke-53" stroke="#FFA306" stroke-width="4" mask="url(#mask-22)"></path>
            </g>
            <polyline id="Stroke-56" stroke="#FFA306" stroke-width="2" points="496.1084 533.4627 549.112645 586.466945 549.466198 586.820498"></polyline>
            <polygon id="Fill-58" fill="#FFA306" points="546.9913 588.5882 553.3552 590.7096 551.2339 584.3456"></polygon>
            <polygon id="Stroke-60" stroke="#FFA306" stroke-width="4" points="567.5332 605.7741 627.48415 605.7741 627.48415 665.72505 567.5332 665.72505"></polygon>
            <g id="Group-18" transform="translate(34.000000, 0.000000)">
                <text id="DECOMPOSITION" font-family="Menlo-Regular, Menlo" font-size="32" font-weight="normal" fill="#9D41FF">
                    <tspan x="29.546875" y="30">DECOMPOSITION</tspan>
                </text>
                <text id="break-down-a-complex" font-family="Montserrat-Light, Montserrat" font-size="30" font-weight="300" fill="#1A1A1A">
                    <tspan x="79.3" y="77">break down a</tspan>
                    <tspan x="17.83" y="114">complex problem</tspan>
                    <tspan x="25.69" y="151">into smaller parts </tspan>
                </text>
            </g>
            <g id="Group-22" transform="translate(1102.000000, 0.000000)">
                <text id="PATTERN-RECOGNITION" font-family="Menlo-Regular, Menlo" font-size="32" font-weight="normal" fill="#FF6163">
                    <tspan x="0" y="30">PATTERN RECOGNITION</tspan>
                </text>
                <text id="search-similarities" font-family="Montserrat-Light, Montserrat" font-size="30" font-weight="300" fill="#1A1A1A">
                    <tspan x="0" y="77">search similarities </tspan>
                    <tspan x="0" y="114">among smaller </tspan>
                    <tspan x="0" y="151">problems</tspan>
                </text>
            </g>
            <g id="Group-21" transform="translate(1090.000000, 616.000000)">
                <text id="ALGORITHM" font-family="Menlo-Regular, Menlo" font-size="32" font-weight="normal" fill="#00B088">
                    <tspan x="0" y="30">A</tspan>
                    <tspan x="19.265625" y="30" letter-spacing="-1.28">L</tspan>
                    <tspan x="37.25125" y="30">GORITHM</tspan>
                </text>
                <text id="define-step-by-step" font-family="Montserrat-Light, Montserrat" font-size="30" font-weight="300" fill="#1A1A1A">
                    <tspan x="0" y="77">define step by step </tspan>
                    <tspan x="0" y="114">instructions for solving </tspan>
                    <tspan x="0" y="151">the problem </tspan>
                </text>
            </g>
            <g id="Group-16" transform="translate(0.000000, 614.000000)">
                <text id="ABSTRACTION" font-family="Menlo-Regular, Menlo" font-size="32" font-weight="normal" fill="#FFA306">
                    <tspan x="102.078125" y="30">ABSTRACTION</tspan>
                </text>
                <text id="identify-important-i" font-family="Montserrat-Light, Montserrat" font-size="30" font-weight="300" fill="#1A1A1A">
                    <tspan x="46.52" y="79">identify important </tspan>
                    <tspan x="33.83" y="116">information; ignore </tspan>
                    <tspan x="73.88" y="153">irrelevant details</tspan>
                </text>
            </g>
            <text id="COMPUTATIONAL-THINKI" font-family="Menlo-Bold, Menlo" font-size="25" font-weight="bold" letter-spacing="-0.6250001" fill="#1A1A1A">
                <tspan x="608.229249" y="384">COMPUTATIONAL</tspan>
                <tspan x="644.294922" y="413">THINKING</tspan>
            </text>
        </g>
    </g>
</svg>