<?xml version="1.0" encoding="UTF-8"?>
<svg width="1511px" height="461px" viewBox="0 0 1511 461" version="1.1" xmlns="http://www.w3.org/2000/svg" xmlns:xlink="http://www.w3.org/1999/xlink">
    <!-- Generator: Sketch 53.2 (72643) - https://sketchapp.com -->
    <title>Artboard</title>
    <desc>Created with Sketch.</desc>
    <defs>
        <path d="M150,0.0749019608 C67.2433333,0.0749019608 0.156666667,67.164902 0.156666667,149.921569 C0.156666667,232.681569 67.2433333,299.764902 150,299.764902 C232.756667,299.764902 299.843333,232.681569 299.843333,149.921569 C299.843333,67.164902 232.756667,0.0749019608 150,0.0749019608 Z M230.036667,229.961569 C219.64,240.358235 207.533333,248.514902 194.056667,254.218235 C180.103333,260.118235 165.283333,263.111569 150,263.111569 C134.716667,263.111569 119.896667,260.118235 105.943333,254.218235 C92.4666667,248.514902 80.36,240.358235 69.9633333,229.961569 C59.5666667,219.564902 51.4033333,207.454902 45.7033333,193.978235 C39.8,180.024902 36.81,165.208235 36.81,149.921569 C36.81,134.638235 39.8,119.814902 45.7033333,105.864902 C51.4033333,92.384902 59.5666667,80.2782353 69.9633333,69.8815686 C80.36,59.4882353 92.4666667,51.324902 105.943333,45.624902 C119.896667,39.7215686 134.716667,36.7315686 150,36.7315686 C165.283333,36.7315686 180.103333,39.7215686 194.056667,45.624902 C207.533333,51.324902 219.64,59.4882353 230.036667,69.8815686 C240.433333,80.2782353 248.596667,92.384902 254.296667,105.864902 C260.2,119.814902 263.19,134.638235 263.19,149.921569 C263.19,165.204902 260.2,180.024902 254.296667,193.974902 C248.596667,207.454902 240.433333,219.564902 230.036667,229.961569 Z M147.073333,268.924902 L147.073333,293.878235 C133.873333,293.618235 120.96,291.591569 108.493333,287.838235 L116.206667,264.088235 C126.03,266.991569 136.373333,268.671569 147.073333,268.924902 Z M152.926667,268.924902 C163.626667,268.671569 173.97,266.991569 183.793333,264.088235 L191.506667,287.838235 C179.04,291.594902 166.126667,293.618235 152.926667,293.878235 L152.926667,268.924902 Z M30.9866667,147.691569 L6.03666667,147.691569 C6.23666667,134.401569 8.22,121.394902 11.9566667,108.844902 L35.7033333,116.558235 C32.82,126.461569 31.1833333,136.901569 30.9866667,147.691569 Z M31.02,153.541569 C31.34,164.304902 33.09,174.701569 36.0833333,184.558235 L12.3333333,192.271569 C8.48666667,179.764902 6.38,166.794902 6.05333333,153.541569 L31.02,153.541569 Z M152.926667,30.914902 L152.926667,5.96490196 C166.273333,6.22823529 179.326667,8.29490196 191.92,12.1282353 L184.206667,35.8782353 C174.26,32.8982353 163.776667,31.1782353 152.926667,30.914902 Z M147.073333,30.914902 C136.223333,31.1782353 125.74,32.8982353 115.793333,35.874902 L108.08,12.124902 C120.673333,8.29490196 133.726667,6.22490196 147.073333,5.96156863 L147.073333,30.914902 Z M268.98,153.541569 L293.946667,153.541569 C293.62,166.798235 291.516667,179.764902 287.666667,192.271569 L263.916667,184.558235 C266.91,174.701569 268.663333,164.301569 268.98,153.541569 Z M269.013333,147.691569 C268.813333,136.904902 267.18,126.464902 264.296667,116.558235 L288.043333,108.844902 C291.78,121.398235 293.766667,134.401569 293.963333,147.691569 L269.013333,147.691569 Z M286.263333,103.261569 L262.52,110.978235 C259.033333,100.901569 254.233333,91.4415686 248.32,82.7982353 L268.523333,68.1215686 C274.093333,76.1715686 278.833333,84.774902 282.68,93.874902 C283.986667,96.974902 285.18,100.101569 286.263333,103.261569 Z M265.096667,63.3782353 L244.896667,78.0515686 C238.503333,69.624902 231.013333,62.074902 222.636667,55.614902 L237.313333,35.414902 C242.39,39.2982353 247.236667,43.5282353 251.813333,48.104902 C256.626667,52.914902 261.053333,58.0115686 265.096667,63.3782353 Z M232.596667,31.9515686 L217.92,52.1582353 C209.296667,46.154902 199.846667,41.264902 189.77,37.694902 L197.483333,13.9515686 C200.363333,14.9582353 203.22,16.0482353 206.043333,17.244902 C215.446667,21.2182353 224.316667,26.144902 232.596667,31.9515686 Z M102.516667,13.9482353 L110.23,37.6915686 C100.156667,41.2615686 90.7033333,46.1515686 82.08,52.154902 L67.4033333,31.9515686 C75.6833333,26.1415686 84.5566667,21.214902 93.9566667,17.2415686 C96.78,16.044902 99.6366667,14.954902 102.516667,13.9482353 Z M48.1833333,48.104902 C52.76,43.5282353 57.6033333,39.2982353 62.6833333,35.414902 L77.36,55.614902 C68.9833333,62.074902 61.4933333,69.624902 55.1,78.0515686 L34.9,63.3782353 C38.9466667,58.0115686 43.3733333,52.914902 48.1833333,48.104902 Z M31.4766667,68.1215686 L51.68,82.7982353 C45.77,91.4415686 40.9666667,100.901569 37.48,110.978235 L13.7366667,103.264902 C14.82,100.104902 16.0133333,96.9715686 17.32,93.874902 C21.17,84.7782353 25.9066667,76.174902 31.4766667,68.1215686 Z M14.1766667,197.824902 L37.92,190.111569 C41.4933333,200.078235 46.3633333,209.434902 52.32,217.968235 L32.1166667,232.641569 C26.2666667,224.328235 21.3166667,215.414902 17.32,205.968235 C16.1833333,203.281569 15.1433333,200.564902 14.1766667,197.824902 Z M35.5866667,237.361569 L55.79,222.681569 C62.1966667,230.968235 69.6733333,238.384902 78.01,244.724902 L63.3333333,264.928235 C58.0133333,260.911569 52.9566667,256.511569 48.1833333,251.738235 C43.6433333,247.201569 39.4466667,242.394902 35.5866667,237.361569 Z M68.0766667,268.358235 L82.75,248.154902 C91.3066667,254.021569 100.67,258.798235 110.636667,262.288235 L102.923333,286.031569 C99.9066667,284.991569 96.9133333,283.851569 93.9566667,282.601569 C84.8066667,278.731569 76.1633333,273.964902 68.0766667,268.358235 Z M197.076667,286.034902 L189.363333,262.291569 C199.33,258.801569 208.693333,254.024902 217.25,248.158235 L231.926667,268.361569 C223.836667,273.968235 215.19,278.731569 206.043333,282.604902 C203.09,283.854902 200.093333,284.991569 197.076667,286.034902 Z M251.816667,251.738235 C247.043333,256.511569 241.986667,260.911569 236.666667,264.928235 L221.993333,244.724902 C230.33,238.384902 237.806667,230.968235 244.213333,222.681569 L264.416667,237.361569 C260.556667,242.394902 256.356667,247.201569 251.816667,251.738235 Z M267.88,232.641569 L247.676667,217.968235 C253.633333,209.431569 258.503333,200.078235 262.076667,190.111569 L285.82,197.824902 C284.853333,200.564902 283.81,203.281569 282.676667,205.968235 C278.68,215.414902 273.73,224.328235 267.88,232.641569 Z" id="path-1"></path>
        <path d="M150,0.0749019608 C67.2433333,0.0749019608 0.156666667,67.164902 0.156666667,149.921569 C0.156666667,232.681569 67.2433333,299.764902 150,299.764902 C232.756667,299.764902 299.843333,232.681569 299.843333,149.921569 C299.843333,67.164902 232.756667,0.0749019608 150,0.0749019608 Z M230.036667,229.961569 C219.64,240.358235 207.533333,248.514902 194.056667,254.218235 C180.103333,260.118235 165.283333,263.111569 150,263.111569 C134.716667,263.111569 119.896667,260.118235 105.943333,254.218235 C92.4666667,248.514902 80.36,240.358235 69.9633333,229.961569 C59.5666667,219.564902 51.4033333,207.454902 45.7033333,193.978235 C39.8,180.024902 36.81,165.208235 36.81,149.921569 C36.81,134.638235 39.8,119.814902 45.7033333,105.864902 C51.4033333,92.384902 59.5666667,80.2782353 69.9633333,69.8815686 C80.36,59.4882353 92.4666667,51.324902 105.943333,45.624902 C119.896667,39.7215686 134.716667,36.7315686 150,36.7315686 C165.283333,36.7315686 180.103333,39.7215686 194.056667,45.624902 C207.533333,51.324902 219.64,59.4882353 230.036667,69.8815686 C240.433333,80.2782353 248.596667,92.384902 254.296667,105.864902 C260.2,119.814902 263.19,134.638235 263.19,149.921569 C263.19,165.204902 260.2,180.024902 254.296667,193.974902 C248.596667,207.454902 240.433333,219.564902 230.036667,229.961569 Z M147.073333,268.924902 L147.073333,293.878235 C133.873333,293.618235 120.96,291.591569 108.493333,287.838235 L116.206667,264.088235 C126.03,266.991569 136.373333,268.671569 147.073333,268.924902 Z M152.926667,268.924902 C163.626667,268.671569 173.97,266.991569 183.793333,264.088235 L191.506667,287.838235 C179.04,291.594902 166.126667,293.618235 152.926667,293.878235 L152.926667,268.924902 Z M30.9866667,147.691569 L6.03666667,147.691569 C6.23666667,134.401569 8.22,121.394902 11.9566667,108.844902 L35.7033333,116.558235 C32.82,126.461569 31.1833333,136.901569 30.9866667,147.691569 Z M31.02,153.541569 C31.34,164.304902 33.09,174.701569 36.0833333,184.558235 L12.3333333,192.271569 C8.48666667,179.764902 6.38,166.794902 6.05333333,153.541569 L31.02,153.541569 Z M152.926667,30.914902 L152.926667,5.96490196 C166.273333,6.22823529 179.326667,8.29490196 191.92,12.1282353 L184.206667,35.8782353 C174.26,32.8982353 163.776667,31.1782353 152.926667,30.914902 Z M147.073333,30.914902 C136.223333,31.1782353 125.74,32.8982353 115.793333,35.874902 L108.08,12.124902 C120.673333,8.29490196 133.726667,6.22490196 147.073333,5.96156863 L147.073333,30.914902 Z M268.98,153.541569 L293.946667,153.541569 C293.62,166.798235 291.516667,179.764902 287.666667,192.271569 L263.916667,184.558235 C266.91,174.701569 268.663333,164.301569 268.98,153.541569 Z M269.013333,147.691569 C268.813333,136.904902 267.18,126.464902 264.296667,116.558235 L288.043333,108.844902 C291.78,121.398235 293.766667,134.401569 293.963333,147.691569 L269.013333,147.691569 Z M286.263333,103.261569 L262.52,110.978235 C259.033333,100.901569 254.233333,91.4415686 248.32,82.7982353 L268.523333,68.1215686 C274.093333,76.1715686 278.833333,84.774902 282.68,93.874902 C283.986667,96.974902 285.18,100.101569 286.263333,103.261569 Z M265.096667,63.3782353 L244.896667,78.0515686 C238.503333,69.624902 231.013333,62.074902 222.636667,55.614902 L237.313333,35.414902 C242.39,39.2982353 247.236667,43.5282353 251.813333,48.104902 C256.626667,52.914902 261.053333,58.0115686 265.096667,63.3782353 Z M232.596667,31.9515686 L217.92,52.1582353 C209.296667,46.154902 199.846667,41.264902 189.77,37.694902 L197.483333,13.9515686 C200.363333,14.9582353 203.22,16.0482353 206.043333,17.244902 C215.446667,21.2182353 224.316667,26.144902 232.596667,31.9515686 Z M102.516667,13.9482353 L110.23,37.6915686 C100.156667,41.2615686 90.7033333,46.1515686 82.08,52.154902 L67.4033333,31.9515686 C75.6833333,26.1415686 84.5566667,21.214902 93.9566667,17.2415686 C96.78,16.044902 99.6366667,14.954902 102.516667,13.9482353 Z M48.1833333,48.104902 C52.76,43.5282353 57.6033333,39.2982353 62.6833333,35.414902 L77.36,55.614902 C68.9833333,62.074902 61.4933333,69.624902 55.1,78.0515686 L34.9,63.3782353 C38.9466667,58.0115686 43.3733333,52.914902 48.1833333,48.104902 Z M31.4766667,68.1215686 L51.68,82.7982353 C45.77,91.4415686 40.9666667,100.901569 37.48,110.978235 L13.7366667,103.264902 C14.82,100.104902 16.0133333,96.9715686 17.32,93.874902 C21.17,84.7782353 25.9066667,76.174902 31.4766667,68.1215686 Z M14.1766667,197.824902 L37.92,190.111569 C41.4933333,200.078235 46.3633333,209.434902 52.32,217.968235 L32.1166667,232.641569 C26.2666667,224.328235 21.3166667,215.414902 17.32,205.968235 C16.1833333,203.281569 15.1433333,200.564902 14.1766667,197.824902 Z M35.5866667,237.361569 L55.79,222.681569 C62.1966667,230.968235 69.6733333,238.384902 78.01,244.724902 L63.3333333,264.928235 C58.0133333,260.911569 52.9566667,256.511569 48.1833333,251.738235 C43.6433333,247.201569 39.4466667,242.394902 35.5866667,237.361569 Z M68.0766667,268.358235 L82.75,248.154902 C91.3066667,254.021569 100.67,258.798235 110.636667,262.288235 L102.923333,286.031569 C99.9066667,284.991569 96.9133333,283.851569 93.9566667,282.601569 C84.8066667,278.731569 76.1633333,273.964902 68.0766667,268.358235 Z M197.076667,286.034902 L189.363333,262.291569 C199.33,258.801569 208.693333,254.024902 217.25,248.158235 L231.926667,268.361569 C223.836667,273.968235 215.19,278.731569 206.043333,282.604902 C203.09,283.854902 200.093333,284.991569 197.076667,286.034902 Z M251.816667,251.738235 C247.043333,256.511569 241.986667,260.911569 236.666667,264.928235 L221.993333,244.724902 C230.33,238.384902 237.806667,230.968235 244.213333,222.681569 L264.416667,237.361569 C260.556667,242.394902 256.356667,247.201569 251.816667,251.738235 Z M267.88,232.641569 L247.676667,217.968235 C253.633333,209.431569 258.503333,200.078235 262.076667,190.111569 L285.82,197.824902 C284.853333,200.564902 283.81,203.281569 282.676667,205.968235 C278.68,215.414902 273.73,224.328235 267.88,232.641569 Z" id="path-3"></path>
    </defs>
    <g id="Artboard" stroke="none" stroke-width="1" fill="none" fill-rule="evenodd">
        <g id="Group-2" transform="translate(573.000000, 81.000000)">
            <g id="Shape">
                <mask id="mask-2" fill="white">
                    <use xlink:href="#path-1"></use>
                </mask>
                <use id="Mask" fill="#000000" fill-rule="nonzero" xlink:href="#path-1"></use>
                <g mask="url(#mask-2)">
                    <g transform="translate(-40.000000, -60.000000)">
                        <path d="M55.3581,350.921569 C19.91115,315.114398 0,266.553728 0,215.921569 L189,215.921569 C189,215.921569 144.4527,260.921569 55.3581,350.921569 Z" fill="#2D99FF"></path>
                        <path d="M75,103.078469 C105.502404,72.8829186 146.868901,55.9215686 190,55.9215686 L190,216.921569 C190,216.921569 151.666667,178.973869 75,103.078469 Z" fill="#2CD9C5"></path>
                        <path d="M333,360.165421 C281.736954,411.694197 207.013859,431.828362 136.978716,412.969157 C102.569969,403.697649 71.1850516,385.481023 46,360.165421 L189.5,215.921569 C189.5,215.921569 189.5,215.921569 189.5,215.921569 C189.5,215.921569 189.5,215.921569 189.5,215.921569 L333,360.165421 Z" fill="#FFE700"></path>
                        <path d="M14,216.921569 C14,170.790046 32.5416,126.545879 65.5504,93.9215686 L190,216.921569 C190,216.921569 131.333333,216.921569 14,216.921569 Z" fill="#505D6F"></path>
                        <path d="M189,0.921568627 C265.80587,0.921568627 336.785458,42.0092612 375.193768,108.706701 C413.602077,175.404141 413.602077,257.579527 375.193768,324.276967 C365.79862,340.595636 354.307301,355.599326 341.020799,368.921569 L189,216.491834 C189,216.491834 189,144.635079 189,0.921568627 Z" fill="#826AF9"></path>
                    </g>
                </g>
            </g>
            <path d="M196.622078,136.125413 C192.569846,136.125413 188.811108,137.776323 186.099614,140.704603 L174.40317,140.704603 C171.785061,134.307745 166.692255,129.22161 160.298732,126.600165 L160.298732,114.903721 C163.227012,112.192227 164.877922,108.43349 164.877922,104.381257 C164.877922,96.4535557 158.427701,90 150.5,90 C142.572299,90 136.122078,96.4535557 136.122078,104.381257 C136.122078,108.43349 137.772988,112.192227 140.701268,114.903721 L140.701268,126.600165 C134.307745,129.218275 129.218275,134.307745 126.59683,140.704603 L114.900386,140.704603 C112.188892,137.776323 108.430154,136.125413 104.377922,136.125413 C96.4502205,136.125413 90,142.575634 90,150.503335 C90,158.427701 96.4502205,164.877922 104.377922,164.877922 C108.430154,164.877922 112.188892,163.230347 114.900386,160.298732 L126.59683,160.298732 C129.214939,166.69559 134.307745,171.781725 140.701268,174.40317 L140.701268,186.102949 C137.772988,188.811108 136.122078,192.569846 136.122078,196.622078 C136.122078,204.549779 142.572299,211 150.5,211 C158.427701,211 164.877922,204.549779 164.877922,196.622078 C164.877922,192.569846 163.227012,188.811108 160.298732,186.096279 L160.298732,174.40317 C166.692255,171.785061 171.781725,166.69559 174.40317,160.298732 L186.099614,160.298732 C188.811108,163.230347 192.569846,164.877922 196.622078,164.877922 C204.549779,164.877922 211,158.427701 211,150.503335 C211,142.575634 204.549779,136.125413 196.622078,136.125413 Z M196.622078,159.021362 C193.917255,159.021362 191.432552,157.777343 189.804989,155.616152 L188.924504,154.442172 L170.200854,154.442172 L169.557166,156.493302 C167.602756,162.713396 162.716731,167.599421 156.496637,169.553831 L154.445507,170.197519 L154.445507,188.924504 L155.616152,189.804989 C157.780678,191.425882 159.024697,193.91392 159.024697,196.618743 C159.024697,201.314664 155.202591,205.140105 150.503335,205.140105 C145.804079,205.140105 141.981974,201.317999 141.981974,196.618743 C141.981974,193.91392 143.225992,191.425882 145.390518,189.804989 L146.561163,188.924504 L146.561163,170.197519 L144.510033,169.553831 C138.289939,167.599421 133.403914,162.713396 131.449504,156.493302 L130.805816,154.442172 L112.082166,154.442172 L111.201681,155.609482 C109.574118,157.777343 107.089416,159.021362 104.384592,159.021362 C99.6853363,159.021362 95.8632304,155.199256 95.8632304,150.503335 C95.8632304,145.804079 99.6853363,141.981974 104.384592,141.981974 C107.089416,141.981974 109.574118,143.222657 111.201681,145.390518 L112.082166,146.561163 L130.805816,146.561163 L131.449504,144.510033 C133.403914,138.286604 138.286604,133.403914 144.513368,131.449504 L146.561163,130.805816 L146.561163,112.078831 L145.390518,111.201681 C143.225992,109.574118 141.981974,107.089416 141.981974,104.384592 C141.981974,99.6853363 145.804079,95.8632304 150.503335,95.8632304 C155.202591,95.8632304 159.024697,99.6853363 159.024697,104.384592 C159.024697,107.089416 157.780678,109.574118 155.616152,111.201681 L154.445507,112.078831 L154.445507,130.805816 L156.496637,131.449504 C162.716731,133.403914 167.602756,138.286604 169.557166,144.510033 L170.200854,146.561163 L188.924504,146.561163 L189.804989,145.390518 C191.432552,143.222657 193.917255,141.981974 196.622078,141.981974 C201.321334,141.981974 205.14344,145.804079 205.14344,150.503335 C205.14344,155.195921 201.321334,159.021362 196.622078,159.021362 Z" id="Shape" fill="#000000" fill-rule="nonzero"></path>
            <path d="M150,139 C143.935593,139 139,143.936354 139,150.001695 C139,156.067037 143.935593,161 150,161 C156.064407,161 161,156.067037 161,150.001695 C161,143.936354 156.064407,139 150,139 Z M150,155.04654 C147.216949,155.04654 144.955932,152.781785 144.955932,150.001695 C144.955932,147.218215 147.216949,144.95346 150,144.95346 C152.783051,144.95346 155.044068,147.218215 155.044068,150.001695 C155.044068,152.781785 152.783051,155.04654 150,155.04654 Z" id="Shape" fill="#000000" fill-rule="nonzero"></path>
        </g>
        <g id="Group-2-Copy" transform="translate(1141.000000, 81.000000)">
            <g id="Shape-Copy">
                <mask id="mask-4" fill="white">
                    <use xlink:href="#path-3"></use>
                </mask>
                <use id="Mask" fill="#000000" fill-rule="nonzero" xlink:href="#path-3"></use>
                <g id="Shape" mask="url(#mask-4)">
                    <g transform="translate(-40.000000, -60.000000)">
                        <path d="M55.3581,350.921569 C19.91115,315.114398 0,266.553728 0,215.921569 L189,215.921569 C189,215.921569 144.4527,260.921569 55.3581,350.921569 Z" fill="#2D99FF"></path>
                        <path d="M75,103.078469 C105.502404,72.8829186 146.868901,55.9215686 190,55.9215686 L190,216.921569 C190,216.921569 151.666667,178.973869 75,103.078469 Z" fill="#2CD9C5"></path>
                        <path d="M333,360.165421 C281.736954,411.694197 207.013859,431.828362 136.978716,412.969157 C102.569969,403.697649 71.1850516,385.481023 46,360.165421 L189.5,215.921569 C189.5,215.921569 189.5,215.921569 189.5,215.921569 C189.5,215.921569 189.5,215.921569 189.5,215.921569 L333,360.165421 Z" fill="#FFE700"></path>
                        <path d="M14,216.921569 C14,170.790046 32.5416,126.545879 65.5504,93.9215686 L190,216.921569 C190,216.921569 131.333333,216.921569 14,216.921569 Z" fill="#505D6F"></path>
                        <path d="M189,0.921568627 C265.80587,0.921568627 336.785458,42.0092612 375.193768,108.706701 C413.602077,175.404141 413.602077,257.579527 375.193768,324.276967 C365.79862,340.595636 354.307301,355.599326 341.020799,368.921569 L189,216.491834 C189,216.491834 189,144.635079 189,0.921568627 Z" fill="#826AF9"></path>
                    </g>
                </g>
            </g>
            <path d="M196.622078,136.125413 C192.569846,136.125413 188.811108,137.776323 186.099614,140.704603 L174.40317,140.704603 C171.785061,134.307745 166.692255,129.22161 160.298732,126.600165 L160.298732,114.903721 C163.227012,112.192227 164.877922,108.43349 164.877922,104.381257 C164.877922,96.4535557 158.427701,90 150.5,90 C142.572299,90 136.122078,96.4535557 136.122078,104.381257 C136.122078,108.43349 137.772988,112.192227 140.701268,114.903721 L140.701268,126.600165 C134.307745,129.218275 129.218275,134.307745 126.59683,140.704603 L114.900386,140.704603 C112.188892,137.776323 108.430154,136.125413 104.377922,136.125413 C96.4502205,136.125413 90,142.575634 90,150.503335 C90,158.427701 96.4502205,164.877922 104.377922,164.877922 C108.430154,164.877922 112.188892,163.230347 114.900386,160.298732 L126.59683,160.298732 C129.214939,166.69559 134.307745,171.781725 140.701268,174.40317 L140.701268,186.102949 C137.772988,188.811108 136.122078,192.569846 136.122078,196.622078 C136.122078,204.549779 142.572299,211 150.5,211 C158.427701,211 164.877922,204.549779 164.877922,196.622078 C164.877922,192.569846 163.227012,188.811108 160.298732,186.096279 L160.298732,174.40317 C166.692255,171.785061 171.781725,166.69559 174.40317,160.298732 L186.099614,160.298732 C188.811108,163.230347 192.569846,164.877922 196.622078,164.877922 C204.549779,164.877922 211,158.427701 211,150.503335 C211,142.575634 204.549779,136.125413 196.622078,136.125413 Z M196.622078,159.021362 C193.917255,159.021362 191.432552,157.777343 189.804989,155.616152 L188.924504,154.442172 L170.200854,154.442172 L169.557166,156.493302 C167.602756,162.713396 162.716731,167.599421 156.496637,169.553831 L154.445507,170.197519 L154.445507,188.924504 L155.616152,189.804989 C157.780678,191.425882 159.024697,193.91392 159.024697,196.618743 C159.024697,201.314664 155.202591,205.140105 150.503335,205.140105 C145.804079,205.140105 141.981974,201.317999 141.981974,196.618743 C141.981974,193.91392 143.225992,191.425882 145.390518,189.804989 L146.561163,188.924504 L146.561163,170.197519 L144.510033,169.553831 C138.289939,167.599421 133.403914,162.713396 131.449504,156.493302 L130.805816,154.442172 L112.082166,154.442172 L111.201681,155.609482 C109.574118,157.777343 107.089416,159.021362 104.384592,159.021362 C99.6853363,159.021362 95.8632304,155.199256 95.8632304,150.503335 C95.8632304,145.804079 99.6853363,141.981974 104.384592,141.981974 C107.089416,141.981974 109.574118,143.222657 111.201681,145.390518 L112.082166,146.561163 L130.805816,146.561163 L131.449504,144.510033 C133.403914,138.286604 138.286604,133.403914 144.513368,131.449504 L146.561163,130.805816 L146.561163,112.078831 L145.390518,111.201681 C143.225992,109.574118 141.981974,107.089416 141.981974,104.384592 C141.981974,99.6853363 145.804079,95.8632304 150.503335,95.8632304 C155.202591,95.8632304 159.024697,99.6853363 159.024697,104.384592 C159.024697,107.089416 157.780678,109.574118 155.616152,111.201681 L154.445507,112.078831 L154.445507,130.805816 L156.496637,131.449504 C162.716731,133.403914 167.602756,138.286604 169.557166,144.510033 L170.200854,146.561163 L188.924504,146.561163 L189.804989,145.390518 C191.432552,143.222657 193.917255,141.981974 196.622078,141.981974 C201.321334,141.981974 205.14344,145.804079 205.14344,150.503335 C205.14344,155.195921 201.321334,159.021362 196.622078,159.021362 Z" id="Shape" fill="#000000" fill-rule="nonzero"></path>
            <path d="M150,139 C143.935593,139 139,143.936354 139,150.001695 C139,156.067037 143.935593,161 150,161 C156.064407,161 161,156.067037 161,150.001695 C161,143.936354 156.064407,139 150,139 Z M150,155.04654 C147.216949,155.04654 144.955932,152.781785 144.955932,150.001695 C144.955932,147.218215 147.216949,144.95346 150,144.95346 C152.783051,144.95346 155.044068,147.218215 155.044068,150.001695 C155.044068,152.781785 152.783051,155.04654 150,155.04654 Z" id="Shape" fill="#000000" fill-rule="nonzero"></path>
        </g>
        <g id="noun_Roulette_170752" transform="translate(70.000000, 81.000000)" fill="#000000" fill-rule="nonzero">
            <g id="Group">
                <path d="M150,0.153333333 C67.2433333,0.153333333 0.156666667,67.2433333 0.156666667,150 C0.156666667,232.76 67.2433333,299.843333 150,299.843333 C232.756667,299.843333 299.843333,232.76 299.843333,150 C299.843333,67.2433333 232.756667,0.153333333 150,0.153333333 Z M230.036667,230.04 C219.64,240.436667 207.533333,248.593333 194.056667,254.296667 C180.103333,260.196667 165.283333,263.19 150,263.19 C134.716667,263.19 119.896667,260.196667 105.943333,254.296667 C92.4666667,248.593333 80.36,240.436667 69.9633333,230.04 C59.5666667,219.643333 51.4033333,207.533333 45.7033333,194.056667 C39.8,180.103333 36.81,165.286667 36.81,150 C36.81,134.716667 39.8,119.893333 45.7033333,105.943333 C51.4033333,92.4633333 59.5666667,80.3566667 69.9633333,69.96 C80.36,59.5666667 92.4666667,51.4033333 105.943333,45.7033333 C119.896667,39.8 134.716667,36.81 150,36.81 C165.283333,36.81 180.103333,39.8 194.056667,45.7033333 C207.533333,51.4033333 219.64,59.5666667 230.036667,69.96 C240.433333,80.3566667 248.596667,92.4633333 254.296667,105.943333 C260.2,119.893333 263.19,134.716667 263.19,150 C263.19,165.283333 260.2,180.103333 254.296667,194.053333 C248.596667,207.533333 240.433333,219.643333 230.036667,230.04 Z M147.073333,269.003333 L147.073333,293.956667 C133.873333,293.696667 120.96,291.67 108.493333,287.916667 L116.206667,264.166667 C126.03,267.07 136.373333,268.75 147.073333,269.003333 Z M152.926667,269.003333 C163.626667,268.75 173.97,267.07 183.793333,264.166667 L191.506667,287.916667 C179.04,291.673333 166.126667,293.696667 152.926667,293.956667 L152.926667,269.003333 Z M30.9866667,147.77 L6.03666667,147.77 C6.23666667,134.48 8.22,121.473333 11.9566667,108.923333 L35.7033333,116.636667 C32.82,126.54 31.1833333,136.98 30.9866667,147.77 Z M31.02,153.62 C31.34,164.383333 33.09,174.78 36.0833333,184.636667 L12.3333333,192.35 C8.48666667,179.843333 6.38,166.873333 6.05333333,153.62 L31.02,153.62 Z M152.926667,30.9933333 L152.926667,6.04333333 C166.273333,6.30666667 179.326667,8.37333333 191.92,12.2066667 L184.206667,35.9566667 C174.26,32.9766667 163.776667,31.2566667 152.926667,30.9933333 Z M147.073333,30.9933333 C136.223333,31.2566667 125.74,32.9766667 115.793333,35.9533333 L108.08,12.2033333 C120.673333,8.37333333 133.726667,6.30333333 147.073333,6.04 L147.073333,30.9933333 Z M268.98,153.62 L293.946667,153.62 C293.62,166.876667 291.516667,179.843333 287.666667,192.35 L263.916667,184.636667 C266.91,174.78 268.663333,164.38 268.98,153.62 Z M269.013333,147.77 C268.813333,136.983333 267.18,126.543333 264.296667,116.636667 L288.043333,108.923333 C291.78,121.476667 293.766667,134.48 293.963333,147.77 L269.013333,147.77 Z M286.263333,103.34 L262.52,111.056667 C259.033333,100.98 254.233333,91.52 248.32,82.8766667 L268.523333,68.2 C274.093333,76.25 278.833333,84.8533333 282.68,93.9533333 C283.986667,97.0533333 285.18,100.18 286.263333,103.34 Z M265.096667,63.4566667 L244.896667,78.13 C238.503333,69.7033333 231.013333,62.1533333 222.636667,55.6933333 L237.313333,35.4933333 C242.39,39.3766667 247.236667,43.6066667 251.813333,48.1833333 C256.626667,52.9933333 261.053333,58.09 265.096667,63.4566667 Z M232.596667,32.03 L217.92,52.2366667 C209.296667,46.2333333 199.846667,41.3433333 189.77,37.7733333 L197.483333,14.03 C200.363333,15.0366667 203.22,16.1266667 206.043333,17.3233333 C215.446667,21.2966667 224.316667,26.2233333 232.596667,32.03 Z M102.516667,14.0266667 L110.23,37.77 C100.156667,41.34 90.7033333,46.23 82.08,52.2333333 L67.4033333,32.03 C75.6833333,26.22 84.5566667,21.2933333 93.9566667,17.32 C96.78,16.1233333 99.6366667,15.0333333 102.516667,14.0266667 Z M48.1833333,48.1833333 C52.76,43.6066667 57.6033333,39.3766667 62.6833333,35.4933333 L77.36,55.6933333 C68.9833333,62.1533333 61.4933333,69.7033333 55.1,78.13 L34.9,63.4566667 C38.9466667,58.09 43.3733333,52.9933333 48.1833333,48.1833333 Z M31.4766667,68.2 L51.68,82.8766667 C45.77,91.52 40.9666667,100.98 37.48,111.056667 L13.7366667,103.343333 C14.82,100.183333 16.0133333,97.05 17.32,93.9533333 C21.17,84.8566667 25.9066667,76.2533333 31.4766667,68.2 Z M14.1766667,197.903333 L37.92,190.19 C41.4933333,200.156667 46.3633333,209.513333 52.32,218.046667 L32.1166667,232.72 C26.2666667,224.406667 21.3166667,215.493333 17.32,206.046667 C16.1833333,203.36 15.1433333,200.643333 14.1766667,197.903333 Z M35.5866667,237.44 L55.79,222.76 C62.1966667,231.046667 69.6733333,238.463333 78.01,244.803333 L63.3333333,265.006667 C58.0133333,260.99 52.9566667,256.59 48.1833333,251.816667 C43.6433333,247.28 39.4466667,242.473333 35.5866667,237.44 Z M68.0766667,268.436667 L82.75,248.233333 C91.3066667,254.1 100.67,258.876667 110.636667,262.366667 L102.923333,286.11 C99.9066667,285.07 96.9133333,283.93 93.9566667,282.68 C84.8066667,278.81 76.1633333,274.043333 68.0766667,268.436667 Z M197.076667,286.113333 L189.363333,262.37 C199.33,258.88 208.693333,254.103333 217.25,248.236667 L231.926667,268.44 C223.836667,274.046667 215.19,278.81 206.043333,282.683333 C203.09,283.933333 200.093333,285.07 197.076667,286.113333 Z M251.816667,251.816667 C247.043333,256.59 241.986667,260.99 236.666667,265.006667 L221.993333,244.803333 C230.33,238.463333 237.806667,231.046667 244.213333,222.76 L264.416667,237.44 C260.556667,242.473333 256.356667,247.28 251.816667,251.816667 Z M267.88,232.72 L247.676667,218.046667 C253.633333,209.51 258.503333,200.156667 262.076667,190.19 L285.82,197.903333 C284.853333,200.643333 283.81,203.36 282.676667,206.046667 C278.68,215.493333 273.73,224.406667 267.88,232.72 Z" id="Shape"></path>
                <path d="M150,46.4633333 C92.82,46.4633333 46.46,92.8166667 46.46,150.003333 C46.46,207.183333 92.8166667,253.543333 150,253.543333 C207.183333,253.543333 253.54,207.183333 253.54,150.003333 C253.54,92.8166667 207.183333,46.4633333 150,46.4633333 Z M219.076667,219.076667 C200.626667,237.526667 176.093333,247.683333 150,247.683333 C123.906667,247.683333 99.3733333,237.526667 80.9266667,219.076667 C62.4733333,200.626667 52.3133333,176.093333 52.3133333,150 C52.3133333,123.906667 62.4733333,99.3733333 80.9266667,80.9233333 C99.3733333,62.4733333 123.906667,52.3133333 150,52.3133333 C176.093333,52.3133333 200.626667,62.4733333 219.076667,80.9233333 C237.526667,99.3733333 247.686667,123.906667 247.686667,150 C247.686667,176.093333 237.526667,200.626667 219.076667,219.076667 Z" id="Shape"></path>
                <path d="M196.093333,135.633333 C192.043333,135.633333 188.286667,137.283333 185.576667,140.21 L173.886667,140.21 C171.27,133.816667 166.18,128.733333 159.79,126.113333 L159.79,114.423333 C162.716667,111.713333 164.366667,107.956667 164.366667,103.906667 C164.366667,95.9833333 157.92,89.5333333 149.996667,89.5333333 C142.073333,89.5333333 135.626667,95.9833333 135.626667,103.906667 C135.626667,107.956667 137.276667,111.713333 140.203333,114.423333 L140.203333,126.113333 C133.813333,128.73 128.726667,133.816667 126.106667,140.21 L114.416667,140.21 C111.706667,137.283333 107.95,135.633333 103.9,135.633333 C95.9766667,135.633333 89.53,142.08 89.53,150.003333 C89.53,157.923333 95.9766667,164.37 103.9,164.37 C107.95,164.37 111.706667,162.723333 114.416667,159.793333 L126.106667,159.793333 C128.723333,166.186667 133.813333,171.27 140.203333,173.89 L140.203333,185.583333 C137.276667,188.29 135.626667,192.046667 135.626667,196.096667 C135.626667,204.02 142.073333,210.466667 149.996667,210.466667 C157.92,210.466667 164.366667,204.02 164.366667,196.096667 C164.366667,192.046667 162.716667,188.29 159.79,185.576667 L159.79,173.89 C166.18,171.273333 171.266667,166.186667 173.886667,159.793333 L185.576667,159.793333 C188.286667,162.723333 192.043333,164.37 196.093333,164.37 C204.016667,164.37 210.463333,157.923333 210.463333,150.003333 C210.463333,142.08 204.016667,135.633333 196.093333,135.633333 Z M196.093333,158.516667 C193.39,158.516667 190.906667,157.273333 189.28,155.113333 L188.4,153.94 L169.686667,153.94 L169.043333,155.99 C167.09,162.206667 162.206667,167.09 155.99,169.043333 L153.94,169.686667 L153.94,188.403333 L155.11,189.283333 C157.273333,190.903333 158.516667,193.39 158.516667,196.093333 C158.516667,200.786667 154.696667,204.61 150,204.61 C145.303333,204.61 141.483333,200.79 141.483333,196.093333 C141.483333,193.39 142.726667,190.903333 144.89,189.283333 L146.06,188.403333 L146.06,169.686667 L144.01,169.043333 C137.793333,167.09 132.91,162.206667 130.956667,155.99 L130.313333,153.94 L111.6,153.94 L110.72,155.106667 C109.093333,157.273333 106.61,158.516667 103.906667,158.516667 C99.21,158.516667 95.39,154.696667 95.39,150.003333 C95.39,145.306667 99.21,141.486667 103.906667,141.486667 C106.61,141.486667 109.093333,142.726667 110.72,144.893333 L111.6,146.063333 L130.313333,146.063333 L130.956667,144.013333 C132.91,137.793333 137.79,132.913333 144.013333,130.96 L146.06,130.316667 L146.06,111.6 L144.89,110.723333 C142.726667,109.096667 141.483333,106.613333 141.483333,103.91 C141.483333,99.2133333 145.303333,95.3933333 150,95.3933333 C154.696667,95.3933333 158.516667,99.2133333 158.516667,103.91 C158.516667,106.613333 157.273333,109.096667 155.11,110.723333 L153.94,111.6 L153.94,130.316667 L155.99,130.96 C162.206667,132.913333 167.09,137.793333 169.043333,144.013333 L169.686667,146.063333 L188.4,146.063333 L189.28,144.893333 C190.906667,142.726667 193.39,141.486667 196.093333,141.486667 C200.79,141.486667 204.61,145.306667 204.61,150.003333 C204.61,154.693333 200.79,158.516667 196.093333,158.516667 Z" id="Shape"></path>
                <path d="M150,139.183333 C144.036667,139.183333 139.183333,144.036667 139.183333,150 C139.183333,155.963333 144.036667,160.813333 150,160.813333 C155.963333,160.813333 160.816667,155.963333 160.816667,150 C160.816667,144.036667 155.963333,139.183333 150,139.183333 Z M150,154.96 C147.263333,154.96 145.04,152.733333 145.04,150 C145.04,147.263333 147.263333,145.036667 150,145.036667 C152.736667,145.036667 154.96,147.263333 154.96,150 C154.96,152.733333 152.736667,154.96 150,154.96 Z" id="Shape"></path>
            </g>
        </g>
        <polygon id="Triangle" fill="#000000" transform="translate(1123.089697, 275.020102) rotate(-288.000000) translate(-1123.089697, -275.020102) " points="1123.0897 249.520102 1140.0897 300.520102 1106.0897 300.520102"></polygon>
        <text id="random-number" font-family="Montserrat-Regular, Montserrat" font-size="20" font-weight="normal" fill="#1A1A1A">
            <tspan x="1033.7" y="379">random number</tspan>
        </text>
        <text id="(0" font-family="Montserrat-Regular, Montserrat" font-size="20" font-weight="normal" fill="#1A1A1A">
            <tspan x="1062.98" y="408">(0</tspan>
        </text>
        <text id="1)" font-family="Montserrat-Regular, Montserrat" font-size="20" font-weight="normal" fill="#1A1A1A">
            <tspan x="1149" y="408">1)</tspan>
        </text>
        <path d="M1116.5,350 L1116.5,316" id="Line-2" stroke="#585858" stroke-width="2" stroke-linecap="square"></path>
        <path id="Line-2-Copy-3" d="M1098.56751,402 L1107.24026,406.878424 L1108.11184,407.368686 L1107.13131,409.111837 L1106.25974,408.621576 L1094.25974,401.871576 L1092.71027,401 L1094.25974,400.128424 L1106.25974,393.378424 L1107.13131,392.888163 L1108.11184,394.631314 L1107.24026,395.121576 L1098.56751,400 L1106.75,400 L1125.08272,400 L1133.26521,400 L1124.59246,395.121576 L1123.72088,394.631314 L1124.7014,392.888163 L1125.57298,393.378424 L1137.57298,400.128424 L1139.12245,401 L1137.57298,401.871576 L1125.57298,408.621576 L1124.7014,409.111837 L1123.72088,407.368686 L1124.59246,406.878424 L1133.26521,402 L1125.08272,402 L1106.75,402 L1098.56751,402 Z" fill="#585858" fill-rule="nonzero"></path>
        <path id="Line-2-Copy" d="M515.614987,229 L502.269478,221.493151 L500.526326,220.512629 L502.487371,217.026326 L504.230522,218.006849 L524.230522,229.256849 L527.329458,231 L524.230522,232.743151 L504.230522,243.993151 L502.487371,244.973674 L500.526326,241.487371 L502.269478,240.506849 L515.614987,233 L503.25,233 L420,233 L418,233 L418,229 L420,229 L503.25,229 L515.614987,229 Z" fill="#0B5445" fill-rule="nonzero"></path>
        <path id="Line-2-Copy-2" d="M1018.61499,229 L1005.26948,221.493151 L1003.52633,220.512629 L1005.48737,217.026326 L1007.23052,218.006849 L1027.23052,229.256849 L1030.32946,231 L1027.23052,232.743151 L1007.23052,243.993151 L1005.48737,244.973674 L1003.52633,241.487371 L1005.26948,240.506849 L1018.61499,233 L1006.25,233 L923,233 L921,233 L921,229 L923,229 L1006.25,229 L1018.61499,229 Z" fill="#0B5445" fill-rule="nonzero"></path>
    </g>
</svg>